<?xml version="1.0" encoding="UTF-8" standalone="no"?>
<!-- Created with Inkscape (http://www.inkscape.org/) -->

<svg
   width="451.5657mm"
   height="297.40115mm"
   viewBox="0 0 451.5657 297.40115"
   version="1.1"
   id="svg1"
   xml:space="preserve"
   inkscape:version="1.3.2 (091e20e, 2023-11-25, custom)"
   sodipodi:docname="logoPeluqueria.svg"
   xmlns:inkscape="http://www.inkscape.org/namespaces/inkscape"
   xmlns:sodipodi="http://sodipodi.sourceforge.net/DTD/sodipodi-0.dtd"
   xmlns="http://www.w3.org/2000/svg"
   xmlns:svg="http://www.w3.org/2000/svg"><sodipodi:namedview
     id="namedview1"
     pagecolor="#ffffff"
     bordercolor="#000000"
     borderopacity="0.25"
     inkscape:showpageshadow="2"
     inkscape:pageopacity="0.0"
     inkscape:pagecheckerboard="0"
     inkscape:deskcolor="#d1d1d1"
     inkscape:document-units="mm"
     showguides="false"
     inkscape:zoom="0.36213173"
     inkscape:cx="1079.7176"
     inkscape:cy="260.95476"
     inkscape:window-width="1920"
     inkscape:window-height="1009"
     inkscape:window-x="1072"
     inkscape:window-y="-8"
     inkscape:window-maximized="1"
     inkscape:current-layer="layer1" /><defs
     id="defs1" /><g
     inkscape:label="Capa 1"
     inkscape:groupmode="layer"
     id="layer1"
     transform="translate(121.134,2.3873694)"><path
       style="fill:#000000"
       d="M 60.566072,294.71367 C 44.010258,293.25559 35.478145,284.1785 39.706991,272.52224 c 2.463817,-6.79119 9.855056,-10.51176 15.32035,-7.71189 3.195677,1.63714 1.605963,3.26099 -1.856397,1.89626 -5.788015,-2.28142 -10.255455,6.88593 -5.217048,10.70557 4.556705,3.45447 12.965644,1.09366 20.020509,-5.62074 6.682542,-6.36004 9.883621,-8.33654 15.32375,-9.46158 8.112552,-1.67771 18.997515,1.80728 20.507845,6.56591 0.21387,0.67383 0.85729,0.86894 0.85729,0.25997 0,-1.27072 4.57556,-4.92733 7.45052,-5.95417 9.54629,-3.4096 18.07822,-1.09388 27.29809,7.40921 8.74935,8.06916 15.01907,10.20067 20.91204,7.10943 5.64614,-2.96175 1.0497,-13.34845 -4.87386,-11.0136 -3.46236,1.36473 -5.05207,-0.25912 -1.8564,-1.89626 7.5406,-3.86304 16.12494,3.33505 16.13893,13.53272 0.0152,11.05591 -9.12998,16.36382 -28.20405,16.3698 -19.93637,0.006 -31.74839,-4.48919 -36.52388,-13.90035 -0.80555,-1.5875 -0.80555,-1.5875 -1.15006,-0.52917 -3.15612,9.69562 -22.778186,16.23667 -43.288548,14.43032 z m -86.430549,-61.87893 c 0,-18.91435 -0.06268,-18.91028 14.487807,-0.94119 0.727959,0.89899 -0.160875,1.71506 6.8552466,-6.29404 1.3581943,-1.55042 2.5511185,-2.89831 2.6509426,-2.99533 0.099824,-0.097 1.11139821,-1.24795 2.24794261,-2.55764 4.12797689,-4.75684 4.09694739,-4.85369 4.09694739,12.7882 0,15.16944 0,15.16944 -2.9483554,15.16944 -3.4651109,0 -3.4016441,0.19875 -3.4016441,-10.65252 0,-6.3157 0,-6.3157 -4.2429008,-1.62395 -2.3335954,2.58046 -4.3693179,4.73532 -4.5238279,4.78858 -0.154509,0.0533 -2.174266,-2.05086 -4.488348,-4.67581 -4.207422,-4.77265 -4.207422,-4.77265 -4.301888,3.69553 -0.09447,8.46817 -0.09447,8.46817 -3.263195,8.46817 -3.168727,0 -3.168727,0 -3.168727,-15.16944 z m 35.3036559,13.33013 c 15.1064761,-38.52709 14.1545091,-38.53247 28.9632951,0.16362 1.173565,3.06658 -5.577957,2.54413 -6.838258,-0.52917 -0.904172,-2.20486 -0.904172,-2.20486 -7.652818,-2.30069 -7.5689,-0.10748 -6.706803,-0.4415 -7.986721,3.09444 -0.446938,1.23472 -0.446938,1.23472 -3.831823,1.33569 -3.3848861,0.10097 -3.3848861,0.10097 -2.6536751,-1.76389 z m 18.4635961,-9.91219 c -1.985632,-6.34699 -3.798772,-9.84158 -4.412518,-8.50454 -0.970583,2.11439 -3.757347,9.29122 -3.65005,9.40006 0.625829,0.63486 8.275528,-0.2148 8.062568,-0.89552 z m 19.963298,11.21048 c -5.531128,-1.72057 -6.792571,-3.401 -4.38179,-5.8372 2.027605,-2.04899 2.027605,-2.04899 2.940114,-1.33112 4.124852,3.24504 11.319453,2.47483 11.319453,-1.21179 0,-2.14197 -1.362565,-3.21352 -4.619138,-3.63258 -8.052793,-1.03625 -11.934921,-5.32054 -10.026761,-11.06547 2.347343,-7.06719 15.686241,-8.98822 20.674689,-2.9775 1.200946,1.44705 -3.537885,4.77495 -5.058872,3.55266 -1.608951,-1.29299 -6.535483,-1.68228 -7.818125,-0.61778 -2.883142,2.39279 -1.169162,4.9001 3.781917,5.53241 14.495751,1.85127 12.826916,18.20835 -1.847248,18.10579 -1.857207,-0.013 -4.091114,-0.24582 -4.964239,-0.51742 z m 30.4087,-0.13917 c -12.315028,-4.55138 -13.337061,-22.11947 -1.628148,-27.98681 7.121161,-3.56842 20.608906,0.007 16.475559,4.36702 -0.928432,0.97943 -1.812694,2.00159 -1.965026,2.27146 -0.223247,0.39551 -0.698008,0.27009 -2.447715,-0.64664 -6.661437,-3.49017 -13.663185,0.08 -13.973711,7.12525 -0.348225,7.90054 7.598964,12.21714 14.518986,7.88615 1.644289,-1.0291 6.132119,2.85297 4.899535,4.2382 -2.590694,2.91154 -11.337931,4.42383 -15.87948,2.74537 z m 30.649757,0.11912 c -7.2095,-2.60964 -8.13385,-4.76126 -8.13835,-18.94363 -0.003,-10.86166 -0.003,-10.86166 3.08336,-10.75973 3.0868,0.10193 3.0868,0.10193 3.26319,10.39561 0.21268,12.41143 0.58687,13.27201 5.99677,13.79184 6.49633,0.62421 7.74341,-1.7318 7.75382,-14.64871 0.007,-8.81709 3.99063,-14.66577 6.1522,-9.03279 0.80492,2.09759 0.0123,21.14978 -0.96249,23.13481 -2.61351,5.32219 -11.00152,8.28765 -17.1485,6.0626 z m 24.39816,-14.52018 c 0.092,-15.08125 0.092,-15.08125 3.17879,-15.18318 3.08681,-0.10193 3.08681,-0.10193 3.08681,12.25903 0,12.36096 0,12.36096 8.11388,12.36096 8.11389,0 8.11389,0 8.11389,2.82222 0,2.82222 0,2.82222 -11.29267,2.82222 -11.29268,0 -11.29268,0 -11.2007,-15.08125 z m 27.07948,-0.0882 c 0,-15.16945 0,-15.16945 3.175,-15.16945 3.175,0 3.175,0 3.175,15.16945 0,15.16944 0,15.16944 -3.175,15.16944 -3.175,0 -3.175,0 -3.175,-15.16944 z m 12.34722,0 c 0,-19.00767 -1.26605,-18.36932 11.37468,-5.73509 9.43921,9.43435 9.43921,9.43435 9.43921,-0.0137 0,-9.44809 0,-9.44809 3.08681,-9.34616 3.0868,0.10193 3.0868,0.10193 3.17878,15.18318 0.11755,19.27286 1.13551,18.77132 -11.81939,5.82333 -9.26286,-9.25792 -9.26286,-9.25792 -9.26286,0 0,9.25792 0,9.25792 -2.99862,9.25792 -2.99861,0 -2.99861,0 -2.99861,-15.16944 z m 32.13098,13.31736 c 15.09431,-38.64169 13.76402,-38.64228 28.87586,0.0128 0.72904,1.86486 0.72904,1.86486 -2.65584,1.76389 -3.38489,-0.10097 -3.38489,-0.10097 -3.83182,-1.33569 -1.27348,-3.51813 -0.41403,-3.175 -7.95251,-3.175 -6.72024,0 -6.72024,0 -7.07157,0.97014 -0.19323,0.53358 -0.4924,1.28764 -0.66483,1.67569 -0.17243,0.38806 -0.4023,0.98337 -0.51082,1.32292 -0.16967,0.5309 -0.66753,0.61736 -3.55462,0.61736 -3.35731,0 -3.35731,0 -2.63385,-1.85208 z m 18.55939,-9.20958 c 0.12216,-0.12216 -3.2323,-9.12033 -3.7418,-10.03719 -0.28626,-0.51514 -0.53997,0.0108 -2.9779,6.17295 -0.85901,2.17124 -1.51294,3.99686 -1.45319,4.05694 0.14859,0.14941 8.01628,-0.0361 8.17289,-0.1927 z m -270.063436,3.55667 c -1.439209,-0.46029 -3.162156,-2.12499 -3.813986,-3.68504 -0.483504,-1.15719 -0.483504,-1.15719 -26.231546,-1.15719 -25.748042,0 -25.748042,0 -25.748112,-1.32292 -7e-5,-1.32291 -7e-5,-1.32291 25.634551,-1.32291 25.634621,0 25.634621,0 26.513711,-1.58024 2.123862,-3.81781 6.133391,-4.98335 9.430166,-2.74129 6.545588,4.45151 1.759422,14.22243 -5.784784,11.80959 z m 296.703266,-0.30134 c -6.41938,-3.17752 -3.63752,-13.25665 3.47036,-12.57367 2.32914,0.2238 4.2133,1.52443 5.31805,3.67102 0.88311,1.71593 0.88311,1.71593 26.52673,1.71593 25.64362,0 25.64362,0 25.64358,1.32291 -4e-5,1.32292 -4e-5,1.32292 -25.66462,1.33471 -25.66458,0.0118 -25.66458,0.0118 -26.72291,1.83162 -1.83742,3.15947 -5.38335,4.27543 -8.57119,2.69748 z m -369.65451,-8.12449 c -1.55971,-0.76351 -1.53955,-0.19903 -1.53955,-43.12057 0,-49.10997 -0.78408,-44.31043 7.58472,-46.42795 42.906927,-10.85654 45.212289,52.11683 2.69182,73.5298 -2.45436,1.23599 -2.45436,1.23599 -2.57309,7.00799 -0.15479,7.52511 -2.42356,10.84172 -6.1639,9.01073 z m 8.87862,-23.85249 c 27.866916,-15.12837 31.704059,-56.47123 5.43209,-58.52746 -8.72137,-0.6826 -8.08915,-3.03571 -8.08915,30.10777 0,16.39496 0.11949,29.7561 0.26555,29.69143 0.14605,-0.0647 1.22223,-0.63696 2.39151,-1.27174 z m 435.30142,23.2603 c -1.73448,-1.07262 -2.19779,-2.17093 -3.3233,-7.87822 -0.58663,-2.97467 -1.14309,-5.7379 -1.23658,-6.14051 -0.13116,-0.56483 -0.83673,-0.94041 -3.08917,-1.64439 -1.60555,-0.50179 -6.46882,-2.052 -10.80727,-3.44489 -4.33844,-1.3929 -8.00368,-2.39918 -8.14498,-2.23618 -0.14131,0.163 -0.54107,1.64574 -0.88836,3.29498 -1.5749,7.47883 -1.89124,8.1148 -4.03533,8.11257 -1.82108,-0.002 -3.48777,-1.15389 -4.28855,-2.96417 -0.76756,-1.7352 -0.89816,-0.82377 1.95093,-13.61507 1.4791,-6.64059 1.63848,-7.36188 3.85873,-17.4625 0.89565,-4.07458 1.78327,-8.04333 1.9725,-8.81944 0.38685,-1.58666 3.46647,-15.45996 3.91552,-17.63889 2.5002,-12.13204 4.95741,-21.93403 5.63778,-22.48959 1.37099,-1.11948 3.05286,-0.80588 4.72996,0.88195 1.68052,1.69127 1.50398,1.09346 3.7244,12.6118 0.80417,4.1716 1.99444,10.28348 2.64504,13.58195 0.6506,3.29847 2.23237,11.39472 3.51503,17.99167 1.28267,6.59694 2.86825,14.69319 3.52351,17.99166 0.65527,3.29848 1.58924,8.06098 2.0755,10.58334 3.81739,19.80198 3.52636,17.82346 2.77111,18.8392 -0.88345,1.18815 -2.97116,1.39418 -4.50647,0.44473 z m -6.51129,-23.71383 c 0,-0.39915 -0.15579,-1.39133 -0.3462,-2.20486 -0.19041,-0.81352 -1.39193,-6.87663 -2.67005,-13.47358 -1.27811,-6.59694 -2.93427,-15.09007 -3.68036,-18.87361 -0.74608,-3.78354 -1.56296,-8.02782 -1.81529,-9.43174 -0.62156,-3.45825 -0.65479,-3.37691 -3.13264,7.66785 -5.90569,26.32398 -6.89897,30.98084 -6.65257,31.18974 0.071,0.0602 2.5103,0.86006 5.42072,1.77751 2.91042,0.91746 6.87917,2.19588 8.81944,2.84093 4.28092,1.42322 4.05695,1.39519 4.05695,0.50776 z m -42.33692,10.16254 c -2.90582,-1.97769 -2.63031,2.45858 -2.73617,-44.05761 -0.10486,-46.07566 -0.23954,-43.43589 2.23977,-43.90101 1.65029,-0.30959 3.63662,0.77337 4.63932,2.52939 1.30511,2.28561 1.24154,84.04917 -0.0663,85.35707 -1.09102,1.09101 -2.54183,1.11669 -4.07657,0.0722 z M -71.918009,216.4466 c -1.060668,-1.06067 -1.417563,-83.12832 -0.370262,-85.1412 1.424124,-2.73712 1.50519,-2.76302 31.629833,-10.10699 7.029914,-1.7138 8.122322,-1.61577 9.130983,0.81935 1.118152,2.69946 -1.242939,5.01013 -6.331466,6.19626 -4.945118,1.1527 -14.267749,3.4068 -20.596978,4.98009 -3.470214,0.86262 -6.367401,1.56839 -6.438194,1.56839 -0.07079,0 -0.128715,13.49375 -0.128715,29.98612 0,25.77915 0.07084,29.98611 0.50492,29.98611 0.277706,0 3.348701,-0.69707 6.824433,-1.54905 8.07924,-1.98038 9.251201,-1.75341 9.251201,1.79166 0,3.21991 -1.350671,3.99203 -11.024304,6.30212 -5.55625,1.32685 -5.55625,1.32685 -5.55625,4.30797 0,2.51024 0.08392,2.94891 0.531291,2.77724 0.587728,-0.22553 7.307523,-1.86789 23.104819,-5.64695 7.099289,-1.6983 6.966133,-1.67982 8.247585,-1.1444 3.979136,1.66259 1.578635,6.50551 -3.842408,7.75191 -1.549723,0.35631 -9.49901,2.29921 -17.665084,4.31756 -16.505853,4.07962 -16.066856,4.00835 -17.271404,2.80381 z m 321.309279,-9.29216 c -9.93781,-6.18195 -15.4647,-9.55444 -18.50812,-11.29361 -2.04209,-1.16696 -2.04209,-1.16696 -2.04209,3.23434 0,5.03441 -0.0763,5.35624 -1.43635,6.05955 -1.79893,0.93026 -4.14444,0.15736 -5.30676,-1.7487 -0.66594,-1.09207 -1.0974,-83.3346 -0.44609,-85.03188 1.81439,-4.72823 18.49831,2.70292 27.47744,12.23867 20.76173,22.04876 17.11921,53.40135 -7.0616,60.78196 -2.29511,0.70053 -3.02613,1.05568 -2.64331,1.2842 16.94742,10.11654 22.85349,14.38084 23.16637,16.72658 0.67749,5.07934 -2.20591,4.58759 -13.19949,-2.25111 z m -12.08355,-22.9064 c 26.82429,-6.3744 21.06465,-50.27107 -7.67291,-58.47861 -0.79375,-0.22669 -0.79375,-0.22669 -0.79375,29.40698 0,29.63367 0,29.63367 0.97014,29.75968 1.6035,0.20828 5.05944,-0.10892 7.49652,-0.68805 z m -260.242109,20.92422 c -1.046476,-0.90009 -1.840991,-81.4182 -0.837639,-84.8883 0.852418,-2.94808 4.229814,-4.41343 6.222287,-2.69967 1.033874,0.88925 1.033874,0.88925 1.126551,40.37435 0.09268,39.48509 0.09268,39.48509 1.5875,39.23384 2.326992,-0.39113 16.4341869,-2.73208 22.3087101,-3.70192 8.5837999,-1.41711 10.8463769,-0.63151 9.6993969,3.36778 -0.83876,2.92458 -1.434255,3.12631 -15.5202297,5.25749 -4.5681301,0.69115 -12.9795403,2.12281 -17.6388873,3.00221 -5.831397,1.10061 -5.732028,1.09983 -6.947689,0.0542 z m 231.490729,-2.51092 c -0.74037,-0.27613 -16.55675,-2.50658 -26.28195,-3.70632 -12.03514,-1.4847 -10.58333,4.75517 -10.58333,-45.48715 0,-42.04297 0,-42.04297 1.0312,-43.07417 1.50485,-1.50486 3.32735,-1.33563 33.01185,3.06519 6.66789,0.98853 9.31096,4.10943 6.15394,7.26645 -1.24939,1.24938 -0.52467,1.29049 -13.73866,-0.77915 -2.10031,-0.32896 -6.10964,-0.89641 -12.52361,-1.77248 -7.29905,-0.99697 -6.52639,-4.45599 -6.52639,29.21692 0,30.01475 0,30.01475 1.49931,30.19423 10.96139,1.31216 12.01069,1.4811 13.28178,2.13841 2.17224,1.12331 2.85245,4.27512 1.28715,5.96411 -1.05918,1.14287 -1.47583,1.15384 -8.6599,0.2279 -8.10235,-1.04429 -7.40834,-1.24055 -7.40834,2.09505 0,2.80061 0,2.80061 1.6757,3.0196 3.64758,0.4767 11.49172,1.57817 24.07708,3.38089 5.00998,0.71763 5.90768,1.01072 7.03772,2.29777 2.50577,2.85391 0.0614,7.21893 -3.33355,5.95275 z m -174.624988,-5.8462 c -6.362002,-1.29035 -11.79937,-6.43758 -13.724685,-12.99236 -1.104858,-3.76151 -0.81489,-70.93157 0.311987,-72.27079 1.755264,-2.08601 4.810233,-2.24558 5.918878,-0.30915 0.337519,0.58953 0.478812,8.67217 0.614653,35.16133 0.176389,34.39583 0.176389,34.39583 1.100602,36.36662 4.506492,9.60963 18.600878,8.57651 23.678211,-1.7356 1.150352,-2.33638 1.150352,-2.33638 1.326741,-36.93207 0.164429,-32.24999 0.218473,-34.65991 0.797072,-35.54276 1.423778,-2.17246 4.264863,-2.53203 5.93748,-0.75146 1.186476,1.26306 1.366047,68.86018 0.192962,72.63833 -3.505159,11.28906 -15.177722,18.5941 -26.153901,16.36791 z M 137.04815,194.5411 c -8.08319,-1.96002 -14.60173,-8.75908 -16.32483,-17.02735 -0.80077,-3.84253 -0.81061,-68.3643 -0.0107,-69.91124 1.21183,-2.34341 3.7697,-2.82597 5.83617,-1.10103 1.2214,1.01953 1.2214,1.01953 1.39779,35.71875 0.17639,34.69922 0.17639,34.69922 1.30855,37.08938 4.13215,8.72356 15.67306,10.98725 21.61288,4.23925 1.30659,-1.48436 1.66087,-2.07533 2.70538,-4.51274 0.1663,-0.38806 0.38173,-16.23718 0.47874,-35.22026 0.17639,-34.5147 0.17639,-34.5147 1.16327,-35.36346 2.03761,-1.75241 4.76094,-1.17728 5.97993,1.26288 0.87674,1.75503 0.95529,65.69793 0.0859,69.91513 -2.28731,11.09508 -12.93924,17.64924 -24.23311,14.91069 z m -55.49444,-1.34464 c -6.267655,-2.03121 -10.732975,-6.47363 -12.947819,-12.8814 -1.248072,-3.6108 -1.274179,-55.8905 -0.02988,-59.84005 5.631204,-17.87413 29.727533,-20.644667 37.968519,-4.36553 2.42783,4.7959 2.34327,3.59421 2.3479,33.36429 0.005,30.4033 0.0724,29.57276 -2.78991,34.22467 -1.34384,2.18403 -1.36003,2.03078 0.28401,2.6886 3.30087,1.32074 3.93555,5.38125 1.10268,7.05467 -1.38642,0.81898 -1.85436,0.76084 -5.62526,-0.69888 -3.022196,-1.1699 -3.427996,-1.24681 -4.409716,-0.83568 -5.742593,2.40487 -11.114254,2.84044 -15.900522,1.28931 z m 3.550419,-7.71244 c -2.978296,-4.25212 1.519043,-6.71545 7.913123,-4.33428 5.186502,1.93148 6.348842,1.21357 7.991488,-4.93584 0.68717,-2.57251 0.68821,-51.04383 10e-4,-53.62222 -3.156453,-11.84538 -18.786201,-13.16562 -24.407128,-2.06167 -1.577359,3.11602 -1.657274,55.49279 -0.08954,58.68488 1.539558,3.13472 4.54636,5.76389 7.688958,6.72329 1.393237,0.42534 1.48545,0.37891 0.901948,-0.45416 z M -120.40892,131.32041 c 0,-3.5176 0,-3.5176 1.49931,-4.07986 1.94764,-0.7304 13.15091,-4.41495 17.90347,-5.88813 2.037293,-0.63151 4.418543,-1.37734 5.291668,-1.65741 1.826402,-0.58584 10.595292,-3.20386 12.170832,-3.63369 0.582083,-0.15881 2.883958,-0.78731 5.115278,-1.39667 12.324608,-3.36581 25.032976,-6.55129 33.866664,-8.489 6.521591,-1.43055 14.49247,-3.0987 17.28611,-3.61766 0.485069,-0.0901 2.072569,-0.40857 3.527777,-0.7077 1.455208,-0.29912 4.630208,-0.88345 7.055555,-1.29851 2.425347,-0.41506 5.124097,-0.894567 5.997222,-1.065587 3.4653111,-0.67873 19.4975969,-3.13735 25.399998,-3.8952 6.695092,-0.85963 8.981637,-1.12381 16.580554,-1.91568 17.947593,-1.8703 32.165378,-3.01841 37.306248,-3.01254 2.349783,0.003 2.619914,-0.21806 1.503356,-1.22854 -0.766316,-0.6935 -6.738987,-0.62015 -15.87905,0.19503 -2.231319,0.19901 -5.803194,0.51531 -7.937499,0.7029 -14.460532,1.27095 -22.716459,2.17931 -31.926387,3.5127 -1.26118,0.18259 -4.11868,0.579 -6.3499991,0.8809 -7.12225939,0.96367 -12.5554697,1.80478 -17.1097209,2.64875 -0.970139,0.17978 -3.748264,0.66175 -6.173611,1.07106 -2.425347,0.40931 -5.600347,0.9898 -7.055555,1.28999 -2.904033,0.599047 -4.475735,0.908647 -7.408333,1.459327 -2.153891,0.40446 -11.777553,2.43272 -13.846526,2.91827 -0.727605,0.17076 -1.918229,0.45009 -2.645834,0.62075 -0.727604,0.17067 -2.574718,0.5784 -4.104699,0.90609 -1.52998,0.32768 -6.848105,1.6368 -11.818055,2.90914 -4.969949,1.27234 -9.474777,2.39104 -10.010728,2.48598 -0.535951,0.095 -1.061258,0.31308 -1.167348,0.48473 -0.10609,0.17166 -0.51702,0.31211 -0.913178,0.31211 -0.396158,0 -2.410852,0.47836 -4.477097,1.06302 -2.066245,0.58467 -4.312434,1.21834 -4.991531,1.40815 -0.679097,0.18982 -2.266597,0.65259 -3.527777,1.02837 -1.261181,0.37579 -3.483681,1.03602 -4.938889,1.46719 -3.887182,1.15176 -10.532595,3.27214 -18.520835,5.90954 -3.88056,1.2812 -7.65087,2.51642 -8.37847,2.74493 -1.32292,0.41547 -1.32292,0.41547 -1.32292,-1.42082 0,-1.8363 0,-1.8363 2.20486,-2.48022 1.21268,-0.35416 2.35568,-0.78108 2.54,-0.94871 0.18433,-0.16763 0.62305,-0.30479 0.97493,-0.30479 0.35188,0 0.91544,-0.15182 1.25236,-0.33739 0.62863,-0.34624 10.76456,-3.64443 17.36952,-5.65196 2.037291,-0.61923 4.180416,-1.27194 4.7625,-1.45048 0.582083,-0.17854 2.487083,-0.73475 4.233333,-1.23603 4.352003,-1.24929 5.10402,-1.46312 6.526388,-1.85571 0.679097,-0.18744 2.425347,-0.67427 3.880555,-1.08184 3.314284,-0.92827 21.496684,-5.59263 23.63611,-6.06341 0.873125,-0.19214 2.143125,-0.48086 2.822222,-0.64161 0.679097,-0.16075 3.139722,-0.71418 5.468055,-1.22985 2.328333,-0.51566 4.90802,-1.090747 5.732638,-1.277977 2.941645,-0.66787 4.522705,-1.01665 6.261805,-1.38134 1.696461,-0.35574 10.779608,-2.06846 15.169444,-2.86035 1.164166,-0.21 2.434166,-0.46095 2.822222,-0.55766 0.388055,-0.0967 2.68993,-0.49023 5.115277,-0.87449 2.4253472,-0.38426 5.362222,-0.85652 6.5263886,-1.04947 7.8163527,-1.29547 22.2781304,-3.2937 30.5152754,-4.2164 9.262763,-1.03759 23.034738,-2.24987 32.090635,-2.82478 6.942214,-0.44072 6.499378,-0.11551 4.145202,-3.04416 -3.457088,-4.3007 -5.328886,-7.519567 -8.373621,-14.399809 -14.32604,-32.372817 13.793896,-71.736368 50.454441,-70.628401 43.63137,1.318641 67.70921,55.453314 38.35466,86.23353 -1.42845,1.49784 -1.59112,1.4363 4.8829,1.84719 6.90823,0.43845 17.5308,1.28855 22.02633,1.7627 1.84326,0.19442 4.14513,0.43687 5.11527,0.53879 5.07469,0.53314 8.37823,0.90655 10.75972,1.21621 1.45521,0.18922 4.55084,0.58896 6.87917,0.88831 2.32833,0.29935 5.2262,0.69913 6.43971,0.88841 1.21351,0.18928 3.35663,0.51645 4.7625,0.72705 1.40587,0.2106 3.42925,0.52554 4.4964,0.69985 1.06715,0.17431 3.05153,0.49533 4.40972,0.71337 2.41115,0.38708 8.28543,1.3992 12.17083,2.097 1.06716,0.19165 3.52778,0.65966 5.46806,1.04003 1.94028,0.38036 5.59153,1.09342 8.11389,1.58456 4.34816,0.84666 7.15594,1.44569 14.46389,3.085837 1.74625,0.39191 3.81,0.84602 4.58611,1.00912 1.23706,0.25997 22.24297,5.57645 25.04722,6.33931 1.25404,0.34115 6.40333,1.81501 9.87777,2.82729 1.3582,0.3957 3.02507,0.87156 3.70417,1.05746 0.6791,0.1859 2.74285,0.80415 4.58611,1.37388 1.84326,0.56974 4.54201,1.38641 5.99722,1.81482 1.45521,0.42841 2.96334,0.90437 3.35139,1.0577 0.38806,0.15332 4.51556,1.53153 9.17222,3.06268 7.541,2.47954 12.77963,6.44247 8.51637,6.44247 -0.09,0 -3.94795,-1.25393 -8.5733,-2.7865 -15.35553,-5.08793 -21.30875,-6.88962 -38.57223,-11.67354 -4.62838,-1.28258 -6.54635,-1.78508 -9.34861,-2.44932 -1.74625,-0.41393 -3.65125,-0.89139 -4.23333,-1.06103 -0.58209,-0.16963 -1.93146,-0.50164 -2.99862,-0.7378 -1.06715,-0.23615 -2.33715,-0.55643 -2.82222,-0.71173 -0.48507,-0.1553 -1.75507,-0.46282 -2.82222,-0.68339 -1.06715,-0.22057 -3.28965,-0.71746 -4.93889,-1.10421 -1.64923,-0.38674 -3.63361,-0.84982 -4.40972,-1.02906 -1.28908,-0.29771 -9.2063,-1.91113 -13.93472,-2.8397 -1.06715,-0.20957 -2.57528,-0.52465 -3.35139,-0.70019 -1.24396,-0.281357 -3.75583,-0.736527 -11.64167,-2.109557 -1.16416,-0.20269 -2.91041,-0.51519 -3.88055,-0.69443 -0.97014,-0.17925 -2.79576,-0.48813 -4.05694,-0.68642 -1.26119,-0.19828 -3.72181,-0.59172 -5.46806,-0.87432 -1.74625,-0.28259 -5.08,-0.76153 -7.40833,-1.06431 -2.32834,-0.30278 -5.26521,-0.70359 -6.52639,-0.89069 -11.28187,-1.67369 -38.07533,-4.27601 -49.47429,-4.8052 -4.80402,-0.22303 -6.61737,0.10807 -6.61737,1.20825 0,0.15066 3.53218,0.47055 7.8493,0.71088 4.31712,0.24033 9.35743,0.58258 11.2007,0.76057 1.84326,0.17798 5.25638,0.4919 7.58472,0.6976 5.55023,0.49033 14.0551,1.34719 17.81527,1.79488 1.64924,0.19636 4.26861,0.50811 5.82084,0.69279 1.55222,0.18468 3.93347,0.49132 5.29166,0.68141 1.3582,0.1901 3.66007,0.50337 5.11528,0.69616 3.47722,0.46068 11.6154,1.69047 14.2875,2.15905 1.16417,0.20415 2.98979,0.51406 4.05694,0.6887 1.06716,0.17463 2.81341,0.47787 3.88056,0.67385 6.04262,1.109717 10.19966,1.848457 11.28889,2.006137 0.67909,0.0983 1.79034,0.31743 2.46944,0.48695 0.6791,0.16951 2.10785,0.47563 3.175,0.68025 1.73994,0.33363 6.21099,1.25069 10.58333,2.17074 5.14827,1.08333 27.75732,6.50225 29.28056,7.01794 0.48507,0.16423 2.23132,0.65341 3.88055,1.08708 4.96917,1.30665 20.14857,5.62557 22.225,6.32357 1.06715,0.35872 3.05153,0.99033 4.40972,1.40357 19.44484,5.91617 20.99028,6.6756 20.99028,10.31469 0,1.90618 -0.11906,3.46607 -0.26459,3.46643 -0.14552,3.5e-4 -2.80458,-0.85852 -5.90902,-1.90862 -6.26002,-2.1175 -16.01508,-5.23107 -21.69583,-6.92478 -6.72541,-2.00516 -9.32562,-2.76705 -11.28889,-3.30776 -1.06716,-0.2939 -3.13091,-0.87059 -4.58611,-1.28152 -4.96125,-1.401 -19.38352,-5.07253 -26.10556,-6.64578 -1.64923,-0.38599 -4.03048,-0.94691 -5.29166,-1.24648 -1.26118,-0.29957 -3.16618,-0.72241 -4.23334,-0.93966 -1.06715,-0.21725 -2.4959,-0.5183 -3.175,-0.669 -3.25098,-0.72145 -14.01978,-2.87201 -17.63888,-3.52255 -2.23132,-0.40108 -4.77132,-0.8794 -5.64445,-1.06294 -2.08498,-0.43827 -14.6273,-2.46988 -19.57916,-3.17144 -1.16417,-0.16494 -3.78354,-0.54463 -5.82084,-0.84376 -5.18601,-0.76146 -18.60013,-2.37508 -25.2236,-3.03421 -1.94028,-0.19309 -5.19466,-0.517097 -7.23195,-0.720017 -4.89115,-0.48718 -16.7024,-1.3281 -22.225,-1.58234 -2.42534,-0.11165 -7.03727,-0.37728 -10.24872,-0.59028 -5.20979,-0.34555 -5.95958,-0.32493 -6.95793,0.19134 -11.4536,5.922887 -31.738772,5.925687 -43.186251,0.006 -0.994503,-0.51428 -1.829566,-0.53066 -8.192649,-0.16068 -15.151566,0.88097 -24.169289,1.46826 -27.722771,1.80548 -2.037291,0.19333 -4.736041,0.43097 -5.997221,0.52809 -3.011977,0.23195 -8.779969,0.869967 -20.637499,2.282787 -7.483049,0.89161 -12.8388893,1.63661 -17.8152763,2.47814 -1.0671526,0.18046 -4.0834024,0.66048 -6.7027773,1.06671 -6.6474434,1.03094 -13.0996734,2.14853 -16.0513874,2.78026 -0.970139,0.20763 -2.637014,0.52187 -3.704167,0.69831 -1.067152,0.17644 -4.321527,0.8164 -7.231944,1.42212 -2.910416,0.60573 -6.736422,1.39812 -8.502236,1.76086 -1.765813,0.36275 -4.305813,0.91963 -5.644444,1.23751 -1.338631,0.31788 -3.703874,0.87904 -5.256096,1.24703 -9.676605,2.29404 -19.751869,4.82932 -23.812498,5.99203 -0.679097,0.19445 -4.250972,1.21535 -7.9375,2.26868 -10.385467,2.96735 -12.56483,3.61838 -19.755553,5.90147 -5.50379,1.74747 -15.90353,5.18353 -17.72709,5.857 -0.33418,0.12342 -0.44097,-0.68899 -0.44097,-3.35473 z M 112.4244,98.017393 c 13.05794,-2.16648 24.86378,-9.76034 32.42617,-20.857456 0.9863,-1.4473 1.79327,-2.724311 1.79327,-2.837803 0,-0.113491 0.47833,-1.017596 1.06295,-2.00912 5.86994,-9.955443 7.27313,-28.913968 2.85851,-38.621333 C 150.38882,33.303625 149.89513,32.113 149.46821,31.045847 146.07227,22.557283 138.58385,13.561195 130.87428,8.70833 125.24338,5.163911 119.90797,3.135606 111.78012,1.449524 109.38772,0.95323202 99.289384,0.94216902 96.83135,1.433144 90.681027,2.661634 85.428105,4.436063 81.648301,6.561954 80.43356,7.245166 79.120282,7.805375 78.82232,8.000868 77.895011,8.609277 77.312458,8.855235 76.594424,9.438206 76.21754,9.777754 74.995741,10.750516 73.879316,11.599899 51.318726,28.764114 49.2538,64.725029 69.70615,84.276063 c 3.439079,3.28752 4.529902,4.19748 7.137803,5.9543 10.495878,7.07061 23.174287,9.845367 35.580447,7.78703 z M 97.078569,96.577043 C 67.533132,90.863623 50.471302,63.023183 59.404477,35.102792 c 1.210455,-3.783244 5.225396,-11.793653 6.453846,-12.876389 0.11007,-0.09701 0.55452,-0.637766 0.987667,-1.20167 24.57295,-31.990968 74.84668,-20.47241198 83.77097,19.193337 7.03834,31.283286 -22.48659,62.36369 -53.538391,56.358973 z m 15.633331,-6.42719 c 35.53965,-7.47599 44.67635,-54.3313 14.52916,-74.509184 -37.014794,-24.774461 -81.208443,19.060547 -57.321738,56.856568 3.31548,5.246096 14.198381,14.640276 16.96036,14.640276 0.08383,0 0.825368,0.30812 1.647871,0.68471 3.137442,1.43652 7.240715,2.46831 11.902397,2.99293 2.26998,0.25546 9.85908,-0.15563 12.28195,-0.6653 z M 90.010422,77.165654 c -8.191795,-3.328067 -6.768224,-13.744623 2.834814,-20.742907 3.025685,-2.204991 3.313847,-2.493269 5.609708,-5.611976 3.131676,-4.254091 3.144486,-4.16995 -1.751973,-11.512504 -6.039772,-9.057021 -6.949705,-13.563907 -4.095428,-20.284583 0.684466,-1.611643 0.126549,-2.324706 4.30784,5.505774 1.036061,1.940278 2.567671,4.797778 3.403577,6.35 0.8359,1.552223 2.03252,3.81441 2.65915,5.027084 1.32035,2.555217 1.36495,2.577294 2.13801,1.058333 0.32094,-0.63059 1.89815,-3.611437 3.50493,-6.624104 7.73792,-14.508437 6.8722,-13.353697 7.79498,-10.397424 2.26847,7.267412 1.63742,10.041367 -4.38417,19.27166 -4.71613,7.229207 -4.73264,7.305466 -2.336,10.790519 2.20766,3.210259 3.49914,4.554231 6.4463,6.708315 7.11356,5.199304 9.24531,10.449517 6.62939,16.327278 -4.59531,10.325294 -17.49654,2.238899 -14.92252,-9.353327 1.20072,-5.407506 1.03766,-6.083699 -3.09177,-12.821787 -1.55971,-2.545016 -5.159336,7.52011 -4.18329,11.697151 2.16215,9.253055 -3.72168,17.392137 -10.563548,14.612498 z m 5.52237,-3.463404 c 4.381342,-3.119789 2.565432,-12.060948 -2.44952,-12.060948 -4.927537,0 -6.844637,8.037968 -2.814912,11.802295 1.352478,1.263403 3.691966,1.378348 5.264432,0.258653 z M 118.5331,73.286864 c 3.85095,-3.631914 1.83218,-11.645562 -2.9337,-11.645562 -3.76065,0 -6.13032,5.218156 -4.36885,9.620493 1.30525,3.262134 4.92619,4.266258 7.30255,2.025069 z m -13.27867,-28.2181 c 0.92333,-1.454154 -0.88699,-2.843114 -1.98354,-1.521856 -0.31209,0.376047 -0.32002,0.69427 -0.0308,1.234722 0.43218,0.80753 1.57999,0.971148 2.01432,0.287134 z"
       id="path347"
       sodipodi:nodetypes="ssssssssssssssscsssssssssssssssssssssssssssssssssssssssssssssssssscssscssssssssssssssssssssssssssssssssssssssssssssssssssssssssssssssssssssssssssscssssssssssssssssssssssssssssssssssssssssssssssssssssssssssssssssssssssssssssssssssssssssssssssssssssssssssssscssssssssssssssscssssssscsscsssccssssscssssssscssssssssssssscssssssssssssssssssssscssssssssssssssssssssssssssssssssssssssssssssssssssssssssssssssssssssssssssssssssssssssssssssssssssssssssssssssssssssssssssssssssssscssssscssssssssssssssssssssssssssssssss" /></g></svg>
